<svg id="Layer_1" data-name="Layer 1" xmlns="http://www.w3.org/2000/svg" xmlns:xlink="http://www.w3.org/1999/xlink" viewBox="0 0 512 512"><defs><linearGradient id="linear-gradient" x1="305.57" y1="474.02" x2="305.59" y2="474.02" gradientUnits="userSpaceOnUse"><stop offset="0" stop-color="#dd1f26"/><stop offset="1" stop-color="#e15c25"/></linearGradient><linearGradient id="linear-gradient-2" x1="12.77" y1="256" x2="499.23" y2="256" xlink:href="#linear-gradient"/><linearGradient id="linear-gradient-3" x1="410.12" y1="9.9" x2="421.04" y2="9.9" xlink:href="#linear-gradient"/></defs><title>cloud-wind-other</title><polygon points="305.57 474.03 305.59 474.02 305.58 474.02 305.57 474.03" fill="url(#linear-gradient)"/><path d="M482.74,299.35c6.07-1.76,15.56-1.09,16.4-7.93,1.12-9-8.35-7.08-14.28-8.13-5.26-.95-10.49-2.12-15.72-3.19,14.75-32.07,15-34.41,11.46-34.75-30-2.9-13.59-25.51-17.31-39.47,10.33-1.72,20-4.86,28.16-12.25-4.78-5.55-13.89,0-16.64-8-4.82-19.6-28.94-12.75-37.45-27.32a25,25,0,0,0-.12-4.09c2.35-2.38,4.7-4.77,7.05-7.18h0l9.92-1.75h0c7.57-2.35,11.45-10.11,6.81-14.13-9.7-8.42-21.27-5.33-31.4,1.93-23.72,1.45-28.66-19.78-40-33.22l8.27-11.75C410,83.81,410,69.79,418.54,62.57c5,2.36,10.55,4,13.34-2.43,2.59-6-.89-10.45-7-11.16-11-1.27-17.93,4.21-21.05,14.66l0,0c-17.72,21.27-38.86,7-58.76,5.66-11.47,0-23.6,2.55-32.22-8.36q.22-6.25.44-12.48c13.36-13.42,15-28.67,4.89-48.5-4.12,24.1-19.08,36-39.47,42.14h0L238.69,60l-8.5-5.23c-17.42-3.42-20.51-23.9-35.71-30-4.87-3.75-10.82-12.44-15.73-7.2-7.71,8.26,4.26,14.51,6.9,22-.29,9.92,7.51,15.1,12.8,21.75h0L187.83,72.88c-9.77,2.35-18.85.16-27.57-4.17l0,0,0,0-1.5-.85h0c-1.91-7.71-2-16.2-9.52-21.42h0c-.93-12.36-5-23.07-16.86-28.73-1.88-.89-7,.79-7.78,2.53C118.45,34.32,134,40.2,137,51c.48,1.67,3,2.78,4.58,4.16L137.3,69.32h0l0,0c-5.93,7.52-16.45,12.56-13.41,24.92-2.56,6.4-8.49,6.1-13.84,7a11.49,11.49,0,0,0-5.61-2.2c-4-12-12.9-24.44-24.11-16.07-9.78,7.32-3.24,20.9,8.89,27.35h0c2.26,2.9,4.55,5.8,6.85,8.71v0c.12,2.54.23,5.05.35,7.59L84.23,138.7h0c-4.57-.61-9.13-1.21-13.69-1.84C62,132,51.07,126.71,46.25,138.33c-4.36,10.51,6.49,13.5,15.34,14.82q1.91,7,3.84,13.95h0v0Q54.78,182.46,44.1,197.8h0c-7.29,4.12-22.55-5.55-22.14,8.65.22,8.35,14.06,4.81,21.93,6.11l6.72,11.91L31.4,243.12c-6.5-.16-14.38-.75-17.54,5.3-3.69,7.09,2.72,12.89,8.4,15,19.57,7.12,13.06,16.75,3.71,27.24C11.17,314.43,48.8,312.06,45.65,330c-2.58,12-28.52,13.64-14.57,33,9.86,9.59,21.36,3.84,32.28,3.44l0,0h0c4,6.17,12.83,14.1,11.3,18.23-10.28,28.07,10.23,34.37,28,43.08.71,7.15,2.16,13.66,11.59,13.06,7.94,6.34-9,30.69,11.49,28,1.85.32,4.28-.15,7.49-1.72,15.36-8.71,29.59-14.43,29.67,12.59,0,17.12,10.53,16.44,21.44,11.84,8.38-3.52,13.86-13.93,25.24-10.28,9.56,6.2,23.11,3.43,30.81,13.78h0c17.9,13.64,36,31.4,51.78-2.29,6-5.11,12.38-9.92,13.4-18.64l19.35,6.43c27.18,31.55,19-17.3,33.46-14.7l12.88.94c5.7,8.88,11.46,22.37,23.83,13.18,7.55-5.6,8.12-18-7.35-20.07v0l0,0c-2.52-8.85,9.37-10.5,9.08-18.23h0c7.46-15.67,28.71-12.58,37-27.16l.14.06c9.13,5.49,18.66,9.21,29.6,6.95,9.07-8.79,12.11-19.91,12.46-32.07,13.62-17-.78-17.88-11.87-20.65h0c-3.55-9.6,1.3-17.94,3.89-26.63.75-1.83,1.42-3.69,2-5.58,10.35-.37,22.77,4.58,28.93-10.6-10-5.77-19.47-3.69-28.75-3.46C465.63,310,473.45,304.28,482.74,299.35ZM305.57,474h0Z" fill="url(#linear-gradient-2)"/><path d="M420.95,7.38c.6-1.38-1.93-5.94-3.38-6.11-5.12-.6-7,3.61-7.42,7.82-.25,2.45,1.25,5.07,2.49,9.51C416.35,13.83,419.38,10.94,420.95,7.38Z" fill="url(#linear-gradient-3)"/><path d="M289.21,200.21h10.91c0-22.73-19.74-42.58-42.47-42.58v10.91A31.48,31.48,0,0,1,289.21,200.21Z" fill="#fff"/><path d="M223.76,342.79H125.4v10.33h98.37c6,0,10.91,5.3,10.91,11.33s-4.88,11.44-10.91,11.44-10.91-4.17-10.91-10.37H201.95c0,10.33,9.77,21.49,21.81,21.49a22.11,22.11,0,0,0,0-44.22Z" fill="#fff"/><path d="M278.3,320.06H125.4v12.4H278.3a10.73,10.73,0,1,1,0,21.45,11,11,0,0,1-10.91-11.12H256.48a21.7,21.7,0,0,0,21.81,21.94c12,0,21.81-10.29,21.81-22.34S290.34,320.06,278.3,320.06Z" fill="#fff"/><path d="M223.76,299.39H125.4v10.33h98.37a21.45,21.45,0,1,0,0-42.9,22,22,0,0,0-21.81,22.24h10.91a11,11,0,0,1,10.91-11.18,10.76,10.76,0,1,1,0,21.51Z" fill="#fff"/><path d="M332.83,179.44c-1.07,0-2.07.26-3.12.32a76.3,76.3,0,0,0-135.94-22c-.92,0-1.81-.14-2.73-.14a65.35,65.35,0,1,0,0,130.7h0c0-8.41,3.27-15.8,8.49-22H191a43.47,43.47,0,0,1-43.63-43.45,42.84,42.84,0,0,1,.84-8.24c.18-.94.5-1.75.74-2.66a43,43,0,0,1,1.58-5c.43-1.08,1-2.06,1.47-3.08a43.83,43.83,0,0,1,2.13-3.93c.68-1.09,1.43-2.08,2.19-3.11s1.62-2.07,2.51-3,1.91-2,2.94-2.94c.86-.78,1.77-1.51,2.7-2.21a41,41,0,0,1,3.7-2.62c.86-.53,1.77-1,2.67-1.45a44.2,44.2,0,0,1,4.48-2.13c.77-.3,1.57-.48,2.34-.72a40.39,40.39,0,0,1,27.89.37,54.26,54.26,0,0,1,44.94-34.8c.32,0,.65-.05,1-.1,1.66-.15,3.28-.5,5-.5a54.07,54.07,0,0,1,32.08,10.63l.23.19a54.28,54.28,0,0,1,19.62,27.92,48.37,48.37,0,0,1,1.73,6.55,51.53,51.53,0,0,1,.87,8.2h21.81c18.07,0,32.72,15,32.72,33.06s-14.66,33.06-32.72,33.06H248a36,36,0,0,1,8.49,22.73h76.35a54.81,54.81,0,0,0,0-109.62Z" fill="#fff"/></svg>